<mxfile host="app.diagrams.net" agent="Mozilla/5.0 (Windows NT 10.0; Win64; x64; rv:128.0) Gecko/20100101 Firefox/128.0" version="28.0.5">
  <diagram name="Page-1" id="A6wYswqma61FJDNkOINY">
    <mxGraphModel dx="1025" dy="427" grid="1" gridSize="10" guides="1" tooltips="1" connect="1" arrows="1" fold="1" page="1" pageScale="1" pageWidth="850" pageHeight="1100" math="0" shadow="0">
      <root>
        <mxCell id="0" />
        <mxCell id="1" parent="0" />
        <mxCell id="hn1NKW5ey4sbfua8mr8q-2" value="AWS Cloud" style="sketch=0;outlineConnect=0;gradientColor=none;html=1;whiteSpace=wrap;fontSize=12;fontStyle=0;shape=mxgraph.aws4.group;grIcon=mxgraph.aws4.group_aws_cloud;strokeColor=#858B94;fillColor=none;verticalAlign=top;align=left;spacingLeft=30;fontColor=#858B94;dashed=0;" vertex="1" parent="1">
          <mxGeometry x="160" y="40" width="870" height="510.5" as="geometry" />
        </mxCell>
        <mxCell id="hn1NKW5ey4sbfua8mr8q-3" value="" style="image;aspect=fixed;html=1;points=[];align=center;fontSize=12;image=img/lib/azure2/other/Connected_Vehicle_Platform.svg;" vertex="1" parent="1">
          <mxGeometry x="50" y="330" width="65.38" height="50" as="geometry" />
        </mxCell>
        <mxCell id="hn1NKW5ey4sbfua8mr8q-7" value="" style="sketch=0;points=[[0,0,0],[0.25,0,0],[0.5,0,0],[0.75,0,0],[1,0,0],[0,1,0],[0.25,1,0],[0.5,1,0],[0.75,1,0],[1,1,0],[0,0.25,0],[0,0.5,0],[0,0.75,0],[1,0.25,0],[1,0.5,0],[1,0.75,0]];outlineConnect=0;fontColor=#232F3E;fillColor=#7AA116;strokeColor=#ffffff;dashed=0;verticalLabelPosition=bottom;verticalAlign=top;align=center;html=1;fontSize=12;fontStyle=0;aspect=fixed;shape=mxgraph.aws4.resourceIcon;resIcon=mxgraph.aws4.s3;" vertex="1" parent="1">
          <mxGeometry x="316" y="460" width="60" height="60" as="geometry" />
        </mxCell>
        <mxCell id="hn1NKW5ey4sbfua8mr8q-10" value="" style="sketch=0;points=[[0,0,0],[0.25,0,0],[0.5,0,0],[0.75,0,0],[1,0,0],[0,1,0],[0.25,1,0],[0.5,1,0],[0.75,1,0],[1,1,0],[0,0.25,0],[0,0.5,0],[0,0.75,0],[1,0.25,0],[1,0.5,0],[1,0.75,0]];outlineConnect=0;fontColor=#232F3E;fillColor=#8C4FFF;strokeColor=#ffffff;dashed=0;verticalLabelPosition=bottom;verticalAlign=top;align=center;html=1;fontSize=12;fontStyle=0;aspect=fixed;shape=mxgraph.aws4.resourceIcon;resIcon=mxgraph.aws4.kinesis_data_firehose;" vertex="1" parent="1">
          <mxGeometry x="314.75" y="372" width="60" height="60" as="geometry" />
        </mxCell>
        <mxCell id="hn1NKW5ey4sbfua8mr8q-18" value="LTTS EDGYneer" style="rounded=0;whiteSpace=wrap;html=1;" vertex="1" parent="1">
          <mxGeometry x="24" y="230" width="120" height="60" as="geometry" />
        </mxCell>
        <mxCell id="hn1NKW5ey4sbfua8mr8q-27" value="" style="rounded=0;whiteSpace=wrap;html=1;dashed=1;" vertex="1" parent="1">
          <mxGeometry x="300" y="180.63" width="90" height="160" as="geometry" />
        </mxCell>
        <mxCell id="hn1NKW5ey4sbfua8mr8q-6" value="" style="sketch=0;points=[[0,0,0],[0.25,0,0],[0.5,0,0],[0.75,0,0],[1,0,0],[0,1,0],[0.25,1,0],[0.5,1,0],[0.75,1,0],[1,1,0],[0,0.25,0],[0,0.5,0],[0,0.75,0],[1,0.25,0],[1,0.5,0],[1,0.75,0]];outlineConnect=0;fontColor=#232F3E;fillColor=#8C4FFF;strokeColor=#ffffff;dashed=0;verticalLabelPosition=bottom;verticalAlign=top;align=center;html=1;fontSize=12;fontStyle=0;aspect=fixed;shape=mxgraph.aws4.resourceIcon;resIcon=mxgraph.aws4.kinesis_data_streams;" vertex="1" parent="1">
          <mxGeometry x="313.5" y="230.25" width="62.5" height="62.5" as="geometry" />
        </mxCell>
        <mxCell id="hn1NKW5ey4sbfua8mr8q-59" value="" style="endArrow=classic;startArrow=classic;html=1;rounded=0;exitX=0.5;exitY=0;exitDx=0;exitDy=0;exitPerimeter=0;" edge="1" parent="1" source="hn1NKW5ey4sbfua8mr8q-53">
          <mxGeometry width="50" height="50" relative="1" as="geometry">
            <mxPoint x="788" y="470" as="sourcePoint" />
            <mxPoint x="788.25" y="440" as="targetPoint" />
          </mxGeometry>
        </mxCell>
        <mxCell id="hn1NKW5ey4sbfua8mr8q-28" value="" style="rounded=0;whiteSpace=wrap;html=1;dashed=1;" vertex="1" parent="1">
          <mxGeometry x="415.25" y="181.5" width="90" height="160" as="geometry" />
        </mxCell>
        <mxCell id="hn1NKW5ey4sbfua8mr8q-60" value="Processor Lambda" style="text;html=1;align=center;verticalAlign=middle;whiteSpace=wrap;rounded=0;" vertex="1" parent="1">
          <mxGeometry x="590" y="390" width="70" height="57" as="geometry" />
        </mxCell>
        <mxCell id="hn1NKW5ey4sbfua8mr8q-8" value="" style="sketch=0;points=[[0,0,0],[0.25,0,0],[0.5,0,0],[0.75,0,0],[1,0,0],[0,1,0],[0.25,1,0],[0.5,1,0],[0.75,1,0],[1,1,0],[0,0.25,0],[0,0.5,0],[0,0.75,0],[1,0.25,0],[1,0.5,0],[1,0.75,0]];outlineConnect=0;fontColor=#232F3E;fillColor=#8C4FFF;strokeColor=#ffffff;dashed=0;verticalLabelPosition=bottom;verticalAlign=top;align=center;html=1;fontSize=12;fontStyle=0;aspect=fixed;shape=mxgraph.aws4.resourceIcon;resIcon=mxgraph.aws4.glue;" vertex="1" parent="1">
          <mxGeometry x="430" y="229.5" width="60.5" height="60.5" as="geometry" />
        </mxCell>
        <mxCell id="hn1NKW5ey4sbfua8mr8q-61" value="" style="endArrow=classic;html=1;rounded=0;entryX=0.442;entryY=1.017;entryDx=0;entryDy=0;entryPerimeter=0;exitX=0.413;exitY=-0.02;exitDx=0;exitDy=0;exitPerimeter=0;" edge="1" parent="1" source="hn1NKW5ey4sbfua8mr8q-3" target="hn1NKW5ey4sbfua8mr8q-18">
          <mxGeometry width="50" height="50" relative="1" as="geometry">
            <mxPoint x="80" y="330" as="sourcePoint" />
            <mxPoint x="130" y="280" as="targetPoint" />
          </mxGeometry>
        </mxCell>
        <mxCell id="hn1NKW5ey4sbfua8mr8q-21" value="" style="endArrow=classic;html=1;rounded=0;" edge="1" parent="1" target="hn1NKW5ey4sbfua8mr8q-8">
          <mxGeometry width="50" height="50" relative="1" as="geometry">
            <mxPoint x="376" y="260" as="sourcePoint" />
            <mxPoint x="430" y="260" as="targetPoint" />
          </mxGeometry>
        </mxCell>
        <mxCell id="hn1NKW5ey4sbfua8mr8q-62" value="" style="endArrow=classic;html=1;rounded=0;entryX=0;entryY=0.536;entryDx=0;entryDy=0;entryPerimeter=0;exitX=1;exitY=0.5;exitDx=0;exitDy=0;dashed=1;" edge="1" parent="1" source="hn1NKW5ey4sbfua8mr8q-30" target="hn1NKW5ey4sbfua8mr8q-32">
          <mxGeometry width="50" height="50" relative="1" as="geometry">
            <mxPoint x="70" y="338" as="sourcePoint" />
            <mxPoint x="70" y="300" as="targetPoint" />
          </mxGeometry>
        </mxCell>
        <mxCell id="hn1NKW5ey4sbfua8mr8q-29" value="" style="rounded=0;whiteSpace=wrap;html=1;dashed=1;" vertex="1" parent="1">
          <mxGeometry x="529.5" y="181.5" width="90.5" height="160" as="geometry" />
        </mxCell>
        <mxCell id="hn1NKW5ey4sbfua8mr8q-63" value="Stream Ingestion" style="text;html=1;align=center;verticalAlign=middle;whiteSpace=wrap;rounded=0;fontStyle=1" vertex="1" parent="1">
          <mxGeometry x="182.5" y="146" width="95" height="30.5" as="geometry" />
        </mxCell>
        <mxCell id="hn1NKW5ey4sbfua8mr8q-15" value="" style="sketch=0;outlineConnect=0;fontColor=#232F3E;gradientColor=none;fillColor=#7AA116;strokeColor=none;dashed=0;verticalLabelPosition=bottom;verticalAlign=top;align=center;html=1;fontSize=12;fontStyle=0;aspect=fixed;pointerEvents=1;shape=mxgraph.aws4.s3_tables;" vertex="1" parent="1">
          <mxGeometry x="542" y="228" width="65" height="65" as="geometry" />
        </mxCell>
        <mxCell id="hn1NKW5ey4sbfua8mr8q-64" value="Stream Storage" style="text;html=1;align=center;verticalAlign=middle;whiteSpace=wrap;rounded=0;fontStyle=1" vertex="1" parent="1">
          <mxGeometry x="302.75" y="146" width="84" height="30" as="geometry" />
        </mxCell>
        <mxCell id="hn1NKW5ey4sbfua8mr8q-24" value="" style="endArrow=classic;html=1;rounded=0;" edge="1" parent="1">
          <mxGeometry width="50" height="50" relative="1" as="geometry">
            <mxPoint x="491" y="260" as="sourcePoint" />
            <mxPoint x="545" y="260" as="targetPoint" />
          </mxGeometry>
        </mxCell>
        <mxCell id="hn1NKW5ey4sbfua8mr8q-65" value="Stream Processing" style="text;html=1;align=center;verticalAlign=middle;whiteSpace=wrap;rounded=0;fontStyle=1" vertex="1" parent="1">
          <mxGeometry x="412.25" y="146" width="95" height="30.5" as="geometry" />
        </mxCell>
        <mxCell id="hn1NKW5ey4sbfua8mr8q-30" value="" style="rounded=0;whiteSpace=wrap;html=1;dashed=1;" vertex="1" parent="1">
          <mxGeometry x="640" y="181.5" width="90.5" height="160" as="geometry" />
        </mxCell>
        <mxCell id="hn1NKW5ey4sbfua8mr8q-66" value="Stream Destination" style="text;html=1;align=center;verticalAlign=middle;whiteSpace=wrap;rounded=0;fontStyle=1" vertex="1" parent="1">
          <mxGeometry x="527" y="146" width="95" height="30.5" as="geometry" />
        </mxCell>
        <mxCell id="hn1NKW5ey4sbfua8mr8q-13" value="" style="sketch=0;points=[[0,0,0],[0.25,0,0],[0.5,0,0],[0.75,0,0],[1,0,0],[0,1,0],[0.25,1,0],[0.5,1,0],[0.75,1,0],[1,1,0],[0,0.25,0],[0,0.5,0],[0,0.75,0],[1,0.25,0],[1,0.5,0],[1,0.75,0]];outlineConnect=0;fontColor=#232F3E;fillColor=#8C4FFF;strokeColor=#ffffff;dashed=0;verticalLabelPosition=bottom;verticalAlign=top;align=center;html=1;fontSize=12;fontStyle=0;aspect=fixed;shape=mxgraph.aws4.resourceIcon;resIcon=mxgraph.aws4.redshift;" vertex="1" parent="1">
          <mxGeometry x="653.5" y="231.25" width="63.5" height="63.5" as="geometry" />
        </mxCell>
        <mxCell id="hn1NKW5ey4sbfua8mr8q-67" value="IoT Core" style="text;html=1;align=center;verticalAlign=middle;whiteSpace=wrap;rounded=0;" vertex="1" parent="1">
          <mxGeometry x="195" y="282.5" width="70" height="57" as="geometry" />
        </mxCell>
        <mxCell id="hn1NKW5ey4sbfua8mr8q-25" value="" style="endArrow=classic;html=1;rounded=0;" edge="1" parent="1">
          <mxGeometry width="50" height="50" relative="1" as="geometry">
            <mxPoint x="598" y="260" as="sourcePoint" />
            <mxPoint x="652" y="260" as="targetPoint" />
          </mxGeometry>
        </mxCell>
        <mxCell id="hn1NKW5ey4sbfua8mr8q-68" value="Kinesis Fire Streams" style="text;html=1;align=center;verticalAlign=middle;whiteSpace=wrap;rounded=0;" vertex="1" parent="1">
          <mxGeometry x="311" y="285.5" width="70" height="57" as="geometry" />
        </mxCell>
        <mxCell id="hn1NKW5ey4sbfua8mr8q-31" value="" style="rounded=0;whiteSpace=wrap;html=1;dashed=1;" vertex="1" parent="1">
          <mxGeometry x="185" y="179.5" width="90" height="160" as="geometry" />
        </mxCell>
        <mxCell id="hn1NKW5ey4sbfua8mr8q-69" value="Glue Streaming" style="text;html=1;align=center;verticalAlign=middle;whiteSpace=wrap;rounded=0;" vertex="1" parent="1">
          <mxGeometry x="424.75" y="283.5" width="70" height="57" as="geometry" />
        </mxCell>
        <mxCell id="hn1NKW5ey4sbfua8mr8q-5" value="" style="sketch=0;points=[[0,0,0],[0.25,0,0],[0.5,0,0],[0.75,0,0],[1,0,0],[0,1,0],[0.25,1,0],[0.5,1,0],[0.75,1,0],[1,1,0],[0,0.25,0],[0,0.5,0],[0,0.75,0],[1,0.25,0],[1,0.5,0],[1,0.75,0]];outlineConnect=0;fontColor=#232F3E;fillColor=#7AA116;strokeColor=#ffffff;dashed=0;verticalLabelPosition=bottom;verticalAlign=top;align=center;html=1;fontSize=12;fontStyle=0;aspect=fixed;shape=mxgraph.aws4.resourceIcon;resIcon=mxgraph.aws4.iot_core;" vertex="1" parent="1">
          <mxGeometry x="200" y="231.25" width="58.75" height="58.75" as="geometry" />
        </mxCell>
        <mxCell id="hn1NKW5ey4sbfua8mr8q-70" value="S3 Tables: Processed" style="text;html=1;align=center;verticalAlign=middle;whiteSpace=wrap;rounded=0;" vertex="1" parent="1">
          <mxGeometry x="542" y="285.5" width="70" height="57" as="geometry" />
        </mxCell>
        <mxCell id="hn1NKW5ey4sbfua8mr8q-20" value="" style="endArrow=classic;html=1;rounded=0;exitX=1;exitY=0.5;exitDx=0;exitDy=0;exitPerimeter=0;entryX=0;entryY=0.5;entryDx=0;entryDy=0;entryPerimeter=0;" edge="1" parent="1">
          <mxGeometry width="50" height="50" relative="1" as="geometry">
            <mxPoint x="258.75" y="262" as="sourcePoint" />
            <mxPoint x="314.75" y="262.87" as="targetPoint" />
          </mxGeometry>
        </mxCell>
        <mxCell id="hn1NKW5ey4sbfua8mr8q-72" value="Query Engine: Redshift" style="text;html=1;align=center;verticalAlign=middle;whiteSpace=wrap;rounded=0;" vertex="1" parent="1">
          <mxGeometry x="645.38" y="290" width="79.75" height="57" as="geometry" />
        </mxCell>
        <mxCell id="hn1NKW5ey4sbfua8mr8q-32" value="" style="rounded=0;whiteSpace=wrap;html=1;dashed=1;" vertex="1" parent="1">
          <mxGeometry x="760" y="155" width="230" height="198.75" as="geometry" />
        </mxCell>
        <mxCell id="hn1NKW5ey4sbfua8mr8q-73" value="" style="endArrow=classic;html=1;rounded=0;exitX=0.5;exitY=1;exitDx=0;exitDy=0;" edge="1" parent="1" source="hn1NKW5ey4sbfua8mr8q-68" target="hn1NKW5ey4sbfua8mr8q-10">
          <mxGeometry width="50" height="50" relative="1" as="geometry">
            <mxPoint x="170" y="260" as="sourcePoint" />
            <mxPoint x="226" y="260.87" as="targetPoint" />
          </mxGeometry>
        </mxCell>
        <mxCell id="hn1NKW5ey4sbfua8mr8q-33" value="" style="sketch=0;outlineConnect=0;fontColor=#232F3E;gradientColor=none;strokeColor=#232F3E;fillColor=#ffffff;dashed=0;verticalLabelPosition=bottom;verticalAlign=top;align=center;html=1;fontSize=12;fontStyle=0;aspect=fixed;shape=mxgraph.aws4.resourceIcon;resIcon=mxgraph.aws4.automation;" vertex="1" parent="1">
          <mxGeometry x="774.13" y="157" width="61.75" height="61.75" as="geometry" />
        </mxCell>
        <mxCell id="hn1NKW5ey4sbfua8mr8q-74" value="" style="endArrow=classic;html=1;rounded=0;exitX=0.5;exitY=1;exitDx=0;exitDy=0;" edge="1" parent="1">
          <mxGeometry width="50" height="50" relative="1" as="geometry">
            <mxPoint x="346" y="433" as="sourcePoint" />
            <mxPoint x="345" y="460" as="targetPoint" />
          </mxGeometry>
        </mxCell>
        <mxCell id="hn1NKW5ey4sbfua8mr8q-34" value="" style="image;aspect=fixed;html=1;points=[];align=center;fontSize=12;image=img/lib/azure2/general/Dashboard2.svg;" vertex="1" parent="1">
          <mxGeometry x="857" y="166.13" width="61.63" height="43.5" as="geometry" />
        </mxCell>
        <mxCell id="hn1NKW5ey4sbfua8mr8q-75" value="Kinesis Firehose" style="text;html=1;align=center;verticalAlign=middle;whiteSpace=wrap;rounded=0;" vertex="1" parent="1">
          <mxGeometry x="376" y="373.5" width="70" height="57" as="geometry" />
        </mxCell>
        <mxCell id="hn1NKW5ey4sbfua8mr8q-35" value="" style="verticalLabelPosition=bottom;html=1;verticalAlign=top;align=center;strokeColor=none;fillColor=#00BEF2;shape=mxgraph.azure.azure_alert;" vertex="1" parent="1">
          <mxGeometry x="937.26" y="163.13" width="50" height="46.5" as="geometry" />
        </mxCell>
        <mxCell id="hn1NKW5ey4sbfua8mr8q-76" value="Raw S3" style="text;html=1;align=center;verticalAlign=middle;whiteSpace=wrap;rounded=0;" vertex="1" parent="1">
          <mxGeometry x="374" y="461.5" width="70" height="57" as="geometry" />
        </mxCell>
        <mxCell id="hn1NKW5ey4sbfua8mr8q-36" value="" style="shape=image;html=1;verticalAlign=top;verticalLabelPosition=bottom;labelBackgroundColor=#ffffff;imageAspect=0;aspect=fixed;image=https://cdn3.iconfinder.com/data/icons/ballicons-reloaded-free/512/icon-93-128.png" vertex="1" parent="1">
          <mxGeometry x="799.75" y="254.75" width="57.25" height="57.25" as="geometry" />
        </mxCell>
        <mxCell id="hn1NKW5ey4sbfua8mr8q-37" value="" style="sketch=0;points=[[0,0,0],[0.25,0,0],[0.5,0,0],[0.75,0,0],[1,0,0],[0,1,0],[0.25,1,0],[0.5,1,0],[0.75,1,0],[1,1,0],[0,0.25,0],[0,0.5,0],[0,0.75,0],[1,0.25,0],[1,0.5,0],[1,0.75,0]];points=[[0,0,0],[0.25,0,0],[0.5,0,0],[0.75,0,0],[1,0,0],[0,1,0],[0.25,1,0],[0.5,1,0],[0.75,1,0],[1,1,0],[0,0.25,0],[0,0.5,0],[0,0.75,0],[1,0.25,0],[1,0.5,0],[1,0.75,0]];outlineConnect=0;fontColor=#232F3E;fillColor=#E7157B;strokeColor=#ffffff;dashed=0;verticalLabelPosition=bottom;verticalAlign=top;align=center;html=1;fontSize=12;fontStyle=0;aspect=fixed;shape=mxgraph.aws4.resourceIcon;resIcon=mxgraph.aws4.chatbot;" vertex="1" parent="1">
          <mxGeometry x="900" y="254.75" width="60" height="60" as="geometry" />
        </mxCell>
        <mxCell id="hn1NKW5ey4sbfua8mr8q-38" value="&lt;b&gt;Possible Outcomes&lt;/b&gt;" style="text;html=1;align=center;verticalAlign=middle;whiteSpace=wrap;rounded=0;" vertex="1" parent="1">
          <mxGeometry x="834.3699999999999" y="112" width="81.25" height="47" as="geometry" />
        </mxCell>
        <mxCell id="hn1NKW5ey4sbfua8mr8q-39" value="Automated Decision" style="text;html=1;align=center;verticalAlign=middle;whiteSpace=wrap;rounded=0;" vertex="1" parent="1">
          <mxGeometry x="767.38" y="203.25" width="81.25" height="47" as="geometry" />
        </mxCell>
        <mxCell id="hn1NKW5ey4sbfua8mr8q-40" value="Interactive Dashboards" style="text;html=1;align=center;verticalAlign=middle;whiteSpace=wrap;rounded=0;" vertex="1" parent="1">
          <mxGeometry x="847.19" y="203.25" width="81.25" height="47" as="geometry" />
        </mxCell>
        <mxCell id="hn1NKW5ey4sbfua8mr8q-41" value="&lt;div&gt;Alerting&lt;/div&gt;" style="text;html=1;align=center;verticalAlign=middle;whiteSpace=wrap;rounded=0;" vertex="1" parent="1">
          <mxGeometry x="921.63" y="203.25" width="81.25" height="47" as="geometry" />
        </mxCell>
        <mxCell id="hn1NKW5ey4sbfua8mr8q-42" value="AI/ML Insights" style="text;html=1;align=center;verticalAlign=middle;whiteSpace=wrap;rounded=0;" vertex="1" parent="1">
          <mxGeometry x="798" y="304.75" width="81.25" height="47" as="geometry" />
        </mxCell>
        <mxCell id="hn1NKW5ey4sbfua8mr8q-43" value="GenAI powered chatbot" style="text;html=1;align=center;verticalAlign=middle;whiteSpace=wrap;rounded=0;" vertex="1" parent="1">
          <mxGeometry x="879.6899999999999" y="306.75" width="100.62" height="47.5" as="geometry" />
        </mxCell>
        <mxCell id="hn1NKW5ey4sbfua8mr8q-52" value="" style="sketch=0;points=[[0,0,0],[0.25,0,0],[0.5,0,0],[0.75,0,0],[1,0,0],[0,1,0],[0.25,1,0],[0.5,1,0],[0.75,1,0],[1,1,0],[0,0.25,0],[0,0.5,0],[0,0.75,0],[1,0.25,0],[1,0.5,0],[1,0.75,0]];outlineConnect=0;fontColor=#232F3E;fillColor=#E7157B;strokeColor=#ffffff;dashed=0;verticalLabelPosition=bottom;verticalAlign=top;align=center;html=1;fontSize=12;fontStyle=0;aspect=fixed;shape=mxgraph.aws4.resourceIcon;resIcon=mxgraph.aws4.api_gateway;" vertex="1" parent="1">
          <mxGeometry x="763.75" y="390" width="50" height="50" as="geometry" />
        </mxCell>
        <mxCell id="hn1NKW5ey4sbfua8mr8q-53" value="" style="sketch=0;points=[[0,0,0],[0.25,0,0],[0.5,0,0],[0.75,0,0],[1,0,0],[0,1,0],[0.25,1,0],[0.5,1,0],[0.75,1,0],[1,1,0],[0,0.25,0],[0,0.5,0],[0,0.75,0],[1,0.25,0],[1,0.5,0],[1,0.75,0]];outlineConnect=0;fontColor=#232F3E;fillColor=#DD344C;strokeColor=#ffffff;dashed=0;verticalLabelPosition=bottom;verticalAlign=top;align=center;html=1;fontSize=12;fontStyle=0;aspect=fixed;shape=mxgraph.aws4.resourceIcon;resIcon=mxgraph.aws4.cognito;" vertex="1" parent="1">
          <mxGeometry x="763.75" y="479" width="50" height="50" as="geometry" />
        </mxCell>
        <mxCell id="hn1NKW5ey4sbfua8mr8q-54" value="" style="outlineConnect=0;dashed=0;verticalLabelPosition=bottom;verticalAlign=top;align=center;html=1;shape=mxgraph.aws3.lambda_function;fillColor=#F58534;gradientColor=none;" vertex="1" parent="1">
          <mxGeometry x="660" y="390" width="50" height="50" as="geometry" />
        </mxCell>
        <mxCell id="hn1NKW5ey4sbfua8mr8q-55" value="Cognito" style="text;html=1;align=center;verticalAlign=middle;whiteSpace=wrap;rounded=0;" vertex="1" parent="1">
          <mxGeometry x="700.75" y="474.5" width="70" height="57" as="geometry" />
        </mxCell>
        <mxCell id="hn1NKW5ey4sbfua8mr8q-56" value="API Gateway" style="text;html=1;align=center;verticalAlign=middle;whiteSpace=wrap;rounded=0;" vertex="1" parent="1">
          <mxGeometry x="810.75" y="389.5" width="70" height="57" as="geometry" />
        </mxCell>
        <mxCell id="hn1NKW5ey4sbfua8mr8q-57" value="" style="endArrow=classic;startArrow=classic;html=1;rounded=0;exitX=0;exitY=0.5;exitDx=0;exitDy=0;exitPerimeter=0;entryX=1;entryY=0.5;entryDx=0;entryDy=0;entryPerimeter=0;" edge="1" parent="1" source="hn1NKW5ey4sbfua8mr8q-52" target="hn1NKW5ey4sbfua8mr8q-54">
          <mxGeometry width="50" height="50" relative="1" as="geometry">
            <mxPoint x="783.75" y="485" as="sourcePoint" />
            <mxPoint x="783.75" y="451" as="targetPoint" />
          </mxGeometry>
        </mxCell>
        <mxCell id="hn1NKW5ey4sbfua8mr8q-58" value="" style="endArrow=classic;startArrow=classic;html=1;rounded=0;" edge="1" parent="1" source="hn1NKW5ey4sbfua8mr8q-54">
          <mxGeometry width="50" height="50" relative="1" as="geometry">
            <mxPoint x="777.75" y="411" as="sourcePoint" />
            <mxPoint x="685" y="340" as="targetPoint" />
          </mxGeometry>
        </mxCell>
        <mxCell id="hn1NKW5ey4sbfua8mr8q-19" value="" style="endArrow=classic;html=1;rounded=0;exitX=1;exitY=0.5;exitDx=0;exitDy=0;exitPerimeter=0;entryX=0;entryY=0.5;entryDx=0;entryDy=0;entryPerimeter=0;" edge="1" parent="1" target="hn1NKW5ey4sbfua8mr8q-5">
          <mxGeometry width="50" height="50" relative="1" as="geometry">
            <mxPoint x="144" y="260.13" as="sourcePoint" />
            <mxPoint x="194" y="260.13" as="targetPoint" />
          </mxGeometry>
        </mxCell>
        <mxCell id="hn1NKW5ey4sbfua8mr8q-77" value="&lt;div&gt;IoT Core&lt;/div&gt;" style="text;html=1;align=center;verticalAlign=middle;whiteSpace=wrap;rounded=0;" vertex="1" parent="1">
          <mxGeometry x="194.38" y="284.5" width="70" height="57" as="geometry" />
        </mxCell>
        <mxCell id="hn1NKW5ey4sbfua8mr8q-78" value="" style="rounded=0;whiteSpace=wrap;html=1;dashed=1;" vertex="1" parent="1">
          <mxGeometry x="354.75" y="50" width="280" height="80" as="geometry" />
        </mxCell>
        <mxCell id="hn1NKW5ey4sbfua8mr8q-79" value="" style="sketch=0;outlineConnect=0;fontColor=#232F3E;gradientColor=none;fillColor=#8C4FFF;strokeColor=none;dashed=0;verticalLabelPosition=bottom;verticalAlign=top;align=center;html=1;fontSize=12;fontStyle=0;aspect=fixed;pointerEvents=1;shape=mxgraph.aws4.glue_data_catalog;" vertex="1" parent="1">
          <mxGeometry x="404.75" y="60" width="55.39" height="60" as="geometry" />
        </mxCell>
        <mxCell id="hn1NKW5ey4sbfua8mr8q-80" value="" style="sketch=0;points=[[0,0,0],[0.25,0,0],[0.5,0,0],[0.75,0,0],[1,0,0],[0,1,0],[0.25,1,0],[0.5,1,0],[0.75,1,0],[1,1,0],[0,0.25,0],[0,0.5,0],[0,0.75,0],[1,0.25,0],[1,0.5,0],[1,0.75,0]];outlineConnect=0;fontColor=#232F3E;fillColor=#8C4FFF;strokeColor=#ffffff;dashed=0;verticalLabelPosition=bottom;verticalAlign=top;align=center;html=1;fontSize=12;fontStyle=0;aspect=fixed;shape=mxgraph.aws4.resourceIcon;resIcon=mxgraph.aws4.lake_formation;" vertex="1" parent="1">
          <mxGeometry x="514.75" y="60" width="60" height="60" as="geometry" />
        </mxCell>
        <mxCell id="hn1NKW5ey4sbfua8mr8q-81" value="Glue Data Catalog" style="text;html=1;align=center;verticalAlign=middle;whiteSpace=wrap;rounded=0;" vertex="1" parent="1">
          <mxGeometry x="317.75" y="63" width="81.25" height="57" as="geometry" />
        </mxCell>
        <mxCell id="hn1NKW5ey4sbfua8mr8q-82" value="Lake Formation" style="text;html=1;align=center;verticalAlign=middle;whiteSpace=wrap;rounded=0;" vertex="1" parent="1">
          <mxGeometry x="578.75" y="66.5" width="81.25" height="47" as="geometry" />
        </mxCell>
        <mxCell id="hn1NKW5ey4sbfua8mr8q-83" value="" style="endArrow=classic;html=1;rounded=0;entryX=0.404;entryY=0.988;entryDx=0;entryDy=0;entryPerimeter=0;dashed=1;" edge="1" parent="1" target="hn1NKW5ey4sbfua8mr8q-78">
          <mxGeometry width="50" height="50" relative="1" as="geometry">
            <mxPoint x="527" y="177" as="sourcePoint" />
            <mxPoint x="470" y="160" as="targetPoint" />
          </mxGeometry>
        </mxCell>
      </root>
    </mxGraphModel>
  </diagram>
</mxfile>
